<?xml version="1.0" encoding="UTF-8"?>
<svg width="600" height="400" xmlns="http://www.w3.org/2000/svg">
  <rect width="100%" height="100%" fill="#1e293b" />
  <g transform="translate(300, 200)">
    <!-- Computer Case -->
    <rect x="-120" y="-100" width="100" height="150" rx="5" fill="#334155" />
    <rect x="-110" y="-90" width="80" height="20" rx="2" fill="#475569" />
    <rect x="-100" y="-60" width="60" height="10" fill="#1e40af" />
    <rect x="-100" y="-40" width="60" height="10" fill="#1e40af" />
    
    <!-- Tool box -->
    <rect x="20" y="-30" width="120" height="80" rx="5" fill="#475569" />
    <rect x="20" y="-30" width="120" height="20" rx="2" fill="#64748b" />
    <rect x="70" y="-10" width="20" height="10" fill="#3b82f6" />
    
    <!-- Tools -->
    <rect x="30" y="0" width="30" height="5" fill="#3b82f6" />
    <rect x="70" y="0" width="10" height="30" fill="#3b82f6" />
    <circle cx="75" cy="40" r="10" fill="#3b82f6" />
    <rect x="100" y="0" width="30" height="5" fill="#3b82f6" />
    
    <!-- Circuit board -->
    <rect x="-40" y="-80" width="40" height="60" rx="2" fill="#1e40af" />
    <circle cx="-30" cy="-70" r="3" fill="#3b82f6" />
    <circle cx="-20" cy="-70" r="3" fill="#3b82f6" />
    <circle cx="-10" cy="-70" r="3" fill="#3b82f6" />
    <circle cx="-30" cy="-50" r="3" fill="#3b82f6" />
    <circle cx="-20" cy="-50" r="3" fill="#3b82f6" />
    <circle cx="-10" cy="-50" r="3" fill="#3b82f6" />
    <rect x="-35" cy="-60" width="30" height="5" fill="#3b82f6" />
    
    <!-- Person shadow -->
    <circle cx="0" cy="100" r="50" fill="#3b82f6" opacity="0.3" />
  </g>
</svg> 