<?xml version="1.0" encoding="UTF-8"?>
<svg width="600" height="400" xmlns="http://www.w3.org/2000/svg">
  <rect width="100%" height="100%" fill="#1e293b" />
  <g transform="translate(300, 200)">
    <!-- Shop outline -->
    <rect x="-200" y="-150" width="400" height="300" rx="5" stroke="#64748b" stroke-width="4" fill="none" />
    
    <!-- Door -->
    <rect x="-20" y="120" width="40" height="30" fill="#64748b" />
    
    <!-- Counter -->
    <rect x="-150" y="0" width="300" height="50" rx="3" fill="#475569" />
    <rect x="-140" y="-20" width="280" height="20" rx="2" fill="#334155" />
    
    <!-- Display shelves -->
    <rect x="-180" y="-130" width="70" height="100" fill="#334155" />
    <rect x="-100" y="-130" width="70" height="100" fill="#334155" />
    <rect x="-20" y="-130" width="70" height="100" fill="#334155" />
    <rect x="60" y="-130" width="70" height="100" fill="#334155" />
    
    <!-- Computers on display -->
    <rect x="-170" y="-120" width="50" height="30" rx="2" fill="#3b82f6" />
    <rect x="-165" y="-115" width="40" height="20" rx="1" fill="#1e3a8a" />
    
    <rect x="-90" y="-120" width="50" height="30" rx="2" fill="#3b82f6" />
    <rect x="-85" y="-115" width="40" height="20" rx="1" fill="#1e3a8a" />
    
    <rect x="-10" y="-120" width="50" height="30" rx="2" fill="#3b82f6" />
    <rect x="-5" y="-115" width="40" height="20" rx="1" fill="#1e3a8a" />
    
    <rect x="70" y="-120" width="50" height="30" rx="2" fill="#3b82f6" />
    <rect x="75" y="-115" width="40" height="20" rx="1" fill="#1e3a8a" />
    
    <!-- People silhouettes -->
    <circle cx="-100" cy="80" r="20" fill="#3b82f6" opacity="0.7" />
    <circle cx="50" cy="80" r="20" fill="#3b82f6" opacity="0.7" />
  </g>
</svg> 