<?xml version="1.0" encoding="UTF-8"?>
<svg width="600" height="400" xmlns="http://www.w3.org/2000/svg">
  <rect width="100%" height="100%" fill="#1e293b" />
  <g transform="translate(300, 200)">
    <!-- Chart Elements -->
    <rect x="-150" y="-20" width="40" height="100" rx="2" fill="#818cf8" />
    <rect x="-90" y="0" width="40" height="80" rx="2" fill="#6366f1" />
    <rect x="-30" y="-40" width="40" height="120" rx="2" fill="#4f46e5" />
    <rect x="30" y="-60" width="40" height="140" rx="2" fill="#4338ca" />
    <rect x="90" y="-10" width="40" height="90" rx="2" fill="#3730a3" />
    
    <!-- Line Graph -->
    <path d="M-150,-50 L-90,-30 L-30,-70 L30,-90 L90,-40 L150,-60" 
          stroke="#10b981" 
          stroke-width="4" 
          fill="none" 
          stroke-linecap="round" 
          stroke-linejoin="round" />
    
    <!-- Data Points -->
    <circle cx="-150" cy="-50" r="6" fill="#10b981" />
    <circle cx="-90" cy="-30" r="6" fill="#10b981" />
    <circle cx="-30" cy="-70" r="6" fill="#10b981" />
    <circle cx="30" cy="-90" r="6" fill="#10b981" />
    <circle cx="90" cy="-40" r="6" fill="#10b981" />
    <circle cx="150" cy="-60" r="6" fill="#10b981" />
    
    <!-- Trend Line -->
    <path d="M-180,80 Q0,40 180,80" 
          stroke="#f472b6" 
          stroke-width="3" 
          fill="none" 
          stroke-linecap="round" 
          stroke-dasharray="5,5" />
  </g>
</svg> 